<svg id="Capa_1" data-name="Capa 1" xmlns="http://www.w3.org/2000/svg" viewBox="0 0 45.06 13.7"><defs><style>.cls-2{fill:#fff}</style></defs><rect width="45.06" height="13.7" rx="1.74" style="fill:#010101"/><path class="cls-2" d="M14 4.47h-1.21l-.28.6h-.16l1-2.14h.16l1 2.14h-.21Zm0-.14-.59-1.23-.56 1.23Zm2-.86-.72 1.6h-.15l-.72-1.6h.16l.64 1.43.64-1.43Zm1.29.14a.58.58 0 0 1 .16.45v1h-.15v-.28a.47.47 0 0 1-.22.22.75.75 0 0 1-.35.08.6.6 0 0 1-.42-.08.41.41 0 0 1-.16-.33.39.39 0 0 1 .15-.32.67.67 0 0 1 .45-.12h.55v-.18a.45.45 0 0 0-.12-.34.49.49 0 0 0-.36-.12.8.8 0 0 0-.3.06.58.58 0 0 0-.25.15l-.07-.12a.85.85 0 0 1 .28-.16 1.09 1.09 0 0 1 .36-.06.63.63 0 0 1 .45.15Zm-.2 1.25a.61.61 0 0 0 .21-.26v-.3h-.55a.61.61 0 0 0-.34.08.3.3 0 0 0-.1.24.3.3 0 0 0 .11.24.54.54 0 0 0 .33.09.62.62 0 0 0 .34-.09Zm.98-1.81a.12.12 0 0 1 0-.18.13.13 0 0 1 .09 0 .18.18 0 0 1 .09 0 .12.12 0 0 1 0 .09.16.16 0 0 1 0 .09.16.16 0 0 1-.09 0 .12.12 0 0 1-.09 0Zm0 .42h.15v1.6h-.15Zm.81-.67H19v2.27h-.15Zm1.79.81a.58.58 0 0 1 .16.45v1h-.15v-.28a.47.47 0 0 1-.22.22.75.75 0 0 1-.35.08.6.6 0 0 1-.42-.08.41.41 0 0 1-.16-.33.39.39 0 0 1 .15-.32.67.67 0 0 1 .45-.12h.55v-.18a.45.45 0 0 0-.12-.34.49.49 0 0 0-.36-.12.8.8 0 0 0-.3.06.58.58 0 0 0-.25.15l-.07-.12a.85.85 0 0 1 .28-.16 1.09 1.09 0 0 1 .36-.06.63.63 0 0 1 .45.15Zm-.2 1.25a.61.61 0 0 0 .21-.26v-.3h-.55a.61.61 0 0 0-.34.08.3.3 0 0 0-.1.24.3.3 0 0 0 .11.24.54.54 0 0 0 .33.09.62.62 0 0 0 .34-.09Zm2.2-1.3a.78.78 0 0 1 .28.29.82.82 0 0 1 .1.42.82.82 0 0 1-.1.42.78.78 0 0 1-.28.29.8.8 0 0 1-.41.1.7.7 0 0 1-.38-.1.69.69 0 0 1-.27-.29v.38h-.15V2.8h.15v1a.73.73 0 0 1 .27-.28.7.7 0 0 1 .38-.1.8.8 0 0 1 .41.14Zm-.09 1.3a.69.69 0 0 0 .24-.24.81.81 0 0 0 0-.7.69.69 0 0 0-.24-.24.67.67 0 0 0-.33-.08.73.73 0 0 0-.33.08.64.64 0 0 0-.22.24.73.73 0 0 0 0 .7.64.64 0 0 0 .22.24.73.73 0 0 0 .33.08.67.67 0 0 0 .33-.08Zm.95-2.06h.15v2.27h-.15Zm2.14 1.51H24.3a.64.64 0 0 0 .1.33.52.52 0 0 0 .24.22.63.63 0 0 0 .34.08.93.93 0 0 0 .29-.05.72.72 0 0 0 .22-.17l.09.1a.66.66 0 0 1-.27.19.74.74 0 0 1-.34.07.82.82 0 0 1-.42-.1.74.74 0 0 1-.29-.29.82.82 0 0 1-.11-.42.81.81 0 0 1 .37-.71.77.77 0 0 1 .4-.1.76.76 0 0 1 .39.1.84.84 0 0 1 .27.29.92.92 0 0 1 .1.41Zm-1.06-.64a.53.53 0 0 0-.21.21.63.63 0 0 0-.1.31h1.23a.75.75 0 0 0-.09-.31.63.63 0 0 0-.22-.21.61.61 0 0 0-.3-.08.62.62 0 0 0-.31.08ZM27.15 5a.78.78 0 0 1-.28-.29.88.88 0 0 1-.11-.42.85.85 0 0 1 .11-.42.78.78 0 0 1 .28-.29.81.81 0 0 1 1.11.29 1 1 0 0 1 .1.42 1 1 0 0 1-.1.42.84.84 0 0 1-1.11.29Zm.74-.12a.66.66 0 0 0 .23-.24.67.67 0 0 0 .08-.35.67.67 0 0 0-.08-.35.66.66 0 0 0-.23-.24.72.72 0 0 0-.66 0 .76.76 0 0 0-.23.24.81.81 0 0 0 0 .7.76.76 0 0 0 .23.24.72.72 0 0 0 .66 0Zm2.2-1.25a.73.73 0 0 1 .17.51v.93h-.15v-.92a.56.56 0 0 0-.11-.41.47.47 0 0 0-.38-.14.55.55 0 0 0-.44.17.61.61 0 0 0-.16.45v.85h-.16v-1.6H29v.35a.65.65 0 0 1 .25-.27.76.76 0 0 1 .38-.09.69.69 0 0 1 .46.17ZM32.47 5l-.14.08a.58.58 0 0 1-.19 0 .46.46 0 0 1-.32-.08.48.48 0 0 1-.11-.32V3.6h-.29v-.13h.29v-.35h.15v.35h.51v.13h-.51v1a.36.36 0 0 0 .08.24.29.29 0 0 0 .22.08.37.37 0 0 0 .25-.09Zm1.68-1.37a.69.69 0 0 1 .17.51v.93h-.15v-.92a.56.56 0 0 0-.17-.41.51.51 0 0 0-.39-.14.57.57 0 0 0-.44.17.61.61 0 0 0-.16.45v.85h-.11V2.8h.15v1a.58.58 0 0 1 .24-.25.8.8 0 0 1 .39-.09.66.66 0 0 1 .47.17Zm2.16.68h-1.38a.75.75 0 0 0 .1.33.67.67 0 0 0 .58.3.93.93 0 0 0 .29-.05.62.62 0 0 0 .22-.17l.09.1A.7.7 0 0 1 36 5a.8.8 0 0 1-.34.07.85.85 0 0 1-.43-.1.81.81 0 0 1-.29-.29.82.82 0 0 1-.11-.42 1 1 0 0 1 .1-.42.78.78 0 0 1 .28-.29.71.71 0 0 1 .39-.1.76.76 0 0 1 .39.1.84.84 0 0 1 .27.29.8.8 0 0 1 .1.41Zm-1.07-.64a.53.53 0 0 0-.21.21.63.63 0 0 0-.09.31h1.22a.75.75 0 0 0-.09-.31.63.63 0 0 0-.22-.21.61.61 0 0 0-.3-.08.65.65 0 0 0-.31.08ZM14.78 8.82h.63v1.43a2.15 2.15 0 0 1-.64.33 2.46 2.46 0 0 1-.76.12 2 2 0 0 1-1-.24 1.67 1.67 0 0 1-.69-.65 1.8 1.8 0 0 1-.25-1 1.74 1.74 0 0 1 .25-.94 1.69 1.69 0 0 1 .68-.61A2 2 0 0 1 14 7a2.18 2.18 0 0 1 .82.15 1.69 1.69 0 0 1 .62.43L15 8a1.35 1.35 0 0 0-1-.41 1.47 1.47 0 0 0-.67.16 1.24 1.24 0 0 0-.46.45 1.29 1.29 0 0 0-.17.65 1.25 1.25 0 0 0 .17.64 1.17 1.17 0 0 0 .46.45 1.45 1.45 0 0 0 1.4 0Zm1.92 1.69a1.29 1.29 0 0 1-.51-.5 1.37 1.37 0 0 1-.19-.73 1.39 1.39 0 0 1 .19-.72 1.27 1.27 0 0 1 .51-.49 1.57 1.57 0 0 1 .75-.18 1.54 1.54 0 0 1 .75.18 1.29 1.29 0 0 1 .52.49 1.49 1.49 0 0 1 .19.72 1.47 1.47 0 0 1-.19.73 1.32 1.32 0 0 1-.52.5 1.54 1.54 0 0 1-.75.17 1.56 1.56 0 0 1-.75-.17ZM18 9.9a.81.81 0 0 0 .23-.62.8.8 0 0 0-.23-.61.77.77 0 0 0-.58-.24.75.75 0 0 0-.58.24.94.94 0 0 0 0 1.23.75.75 0 0 0 .58.24.77.77 0 0 0 .58-.24Zm2 .61a1.39 1.39 0 0 1-.52-.5 1.47 1.47 0 0 1-.19-.73 1.49 1.49 0 0 1 .19-.72 1.36 1.36 0 0 1 .52-.49 1.54 1.54 0 0 1 .75-.18 1.6 1.6 0 0 1 .75.18 1.27 1.27 0 0 1 .51.49 1.39 1.39 0 0 1 .19.72 1.37 1.37 0 0 1-.2.72 1.29 1.29 0 0 1-.51.5 1.59 1.59 0 0 1-.75.17 1.54 1.54 0 0 1-.74-.16Zm1.33-.61a.94.94 0 0 0 0-1.23.78.78 0 0 0-.58-.24.75.75 0 0 0-.58.24.8.8 0 0 0-.23.61.81.81 0 0 0 .23.62.75.75 0 0 0 .58.24.78.78 0 0 0 .58-.24Zm4.19-1.98v2.31a1.29 1.29 0 0 1-1.47 1.45 3.08 3.08 0 0 1-.75-.1 1.85 1.85 0 0 1-.58-.29l.29-.48a1.36 1.36 0 0 0 .45.23 1.77 1.77 0 0 0 .56.09.87.87 0 0 0 .65-.2.83.83 0 0 0 .21-.62v-.15a1 1 0 0 1-.4.27 1.19 1.19 0 0 1-.51.1 1.48 1.48 0 0 1-.7-.17 1.26 1.26 0 0 1-.5-.47 1.31 1.31 0 0 1-.18-.69 1.28 1.28 0 0 1 .18-.68 1.26 1.26 0 0 1 .5-.47 1.47 1.47 0 0 1 .7-.16 1.33 1.33 0 0 1 .54.1.9.9 0 0 1 .4.29v-.36Zm-.86 1.85a.74.74 0 0 0 .23-.57.7.7 0 0 0-.23-.55.8.8 0 0 0-.59-.22.81.81 0 0 0-.6.22.71.71 0 0 0-.24.55.75.75 0 0 0 .24.57.84.84 0 0 0 .6.21.84.84 0 0 0 .59-.21Zm1.7-2.91H27v3.79h-.64Zm4.03 2.63h-2.14a.8.8 0 0 0 .29.48 1 1 0 0 0 .59.17 1.05 1.05 0 0 0 .75-.29l.34.39a1.12 1.12 0 0 1-.47.33 1.57 1.57 0 0 1-.63.11 1.67 1.67 0 0 1-.79-.17 1.28 1.28 0 0 1-.53-.5 1.37 1.37 0 0 1-.19-.73 1.41 1.41 0 0 1 .18-.71 1.23 1.23 0 0 1 .51-.5 1.43 1.43 0 0 1 .7-.18 1.39 1.39 0 0 1 .71.18 1.24 1.24 0 0 1 .5.49 1.58 1.58 0 0 1 .17.74 1.49 1.49 0 0 1 .01.19Zm-1.89-.91a.75.75 0 0 0-.25.48h1.54a.75.75 0 0 0-.25-.48.77.77 0 0 0-.54-.18.78.78 0 0 0-.5.18Zm6.27-1.35a1.15 1.15 0 0 1 .53.44 1.23 1.23 0 0 1 .18.68 1.24 1.24 0 0 1-.18.65 1.21 1.21 0 0 1-.53.44 1.86 1.86 0 0 1-.81.16h-.81v1h-.66V7.07H34a1.86 1.86 0 0 1 .77.16Zm-.18 1.64a.63.63 0 0 0 .22-.52.64.64 0 0 0-.22-.53 1 1 0 0 0-.66-.19h-.78v1.43h.78a1 1 0 0 0 .66-.19Zm1.54-2.01h.64v3.79h-.64Zm3.44 1.32a1.08 1.08 0 0 1 .32.87v1.6h-.6v-.33a.73.73 0 0 1-.33.27 1.4 1.4 0 0 1-.53.09 1.25 1.25 0 0 1-.53-.1.81.81 0 0 1-.36-.29.79.79 0 0 1-.12-.42.72.72 0 0 1 .27-.59 1.34 1.34 0 0 1 .86-.22h.7V9a.55.55 0 0 0-.17-.44.73.73 0 0 0-.5-.15 1.43 1.43 0 0 0-.46.07 1.31 1.31 0 0 0-.37.2l-.25-.46A1.35 1.35 0 0 1 38 8a2.25 2.25 0 0 1 .64-.09 1.33 1.33 0 0 1 .93.27ZM39 10.11a.57.57 0 0 0 .26-.31v-.32h-.66c-.37 0-.56.12-.56.36a.34.34 0 0 0 .14.28.63.63 0 0 0 .39.1.82.82 0 0 0 .43-.11Zm4.21-2.19-1.27 2.95a1.39 1.39 0 0 1-.44.62 1 1 0 0 1-.62.19 1.4 1.4 0 0 1-.4-.07 1.29 1.29 0 0 1-.33-.18l.26-.47a.67.67 0 0 0 .22.13.53.53 0 0 0 .25.05.44.44 0 0 0 .28-.08.86.86 0 0 0 .2-.29v-.11l-1.14-2.74h.66l.86 2 .86-2Zm-32.35-.7-1.72-1-1.41 1.37L9 8.84l1.84-1.06a.32.32 0 0 0 0-.56Z" transform="translate(-.02 -.54)"/><path class="cls-2" d="M8.83 5.52 6.95 4.43 2.81 2.31l4.67 4.52 1.35-1.31zm-5.96 6.21 4.08-2.25 1.76-1.01-1.23-1.19-4.61 4.45zm-.34-9.24-.01 9.13 4.73-4.57-4.72-4.56z"/></svg>